<svg 
enable-background="new 0 0 510.039 510.039" height="20px" width="20px"
viewBox="0 0 510.039 510.039"  xmlns="http://www.w3.org/2000/svg"><g><g><path d="m304.439 211.215-16.842-10.971-5.144 8.523-80.035-64.856-56.74-60.294-36.75 2.099-21.63 73.673 13.96 64.101c17.24 79.17 83.11 138.49 163.65 147.38l26.79 2.95c11.48 1.27 23 1.9 34.5 1.9 31.78 0 63.44-4.82 93.9-14.35l6.49-1.94 24.888 6.597z" fill="#bbec6c"/><path d="m62.214 123.9-54.047-12.88c-.877-.205-.891-1.441.03-1.816l90.59-23.488 3.517 46.518z" fill="#a79ba7"/><path d="m402.058 332.528 61.851 68.314c6.645 7.373 17.382 9.429 26.281 5.033 14.167-6.999 16.669-26.151 4.775-36.554l-54.78-47.917-30.118-25.633-22.921 15.529z" fill="#97da7b"/><g><g id="XMLID_244_"><g><path d="m443.127 314.309-7.43-4.13c-2.89-1.6-5.58-3.51-8.04-5.71l-17.59-15.79-93.192-9.814-115.05-30.45 7.023 24.634c1.58 1.6 3.2 3.17 4.84 4.71 3.053 2.853 6.211 5.592 9.447 8.237l.216.196.062.029c18.9 15.39 40.817 27.182 64.755 34.408l14.22 4.29c44.86 13.53 92.87 12.31 136.99-3.47l3.26-1.16c2.659-.95 2.959-4.6.489-5.98z" fill="#80d261"/><path d="m364.277 372.991c-11.5 0-23.02-.63-34.5-1.9l-26.79-2.95c-80.54-8.89-146.41-68.21-163.65-147.38l-15.19-69.75c-.68-3.14-2.18-6.04-4.34-8.41-1.78-1.962-3.308-4.036-4.625-6.181l-3.416 6.095-24.467 16.874 13.96 64.1c17.24 79.17 83.11 138.49 163.65 147.38l26.79 2.95c11.48 1.27 23 1.9 34.5 1.9 13.91 0 27.796-.924 41.569-2.761-1.165.013-2.328.033-3.491.033z" fill="#a2e62e"/><path d="m125.227 110.529-4.91-12-11.928-23.883-40.471 19.073.19 2.71c.6 8.71-1.07 17.42-4.85 25.28l-1.05 2.19 19.52 21.43c2.16 2.37 3.66 5.27 4.34 8.41l1.23 5.65 9.19-.93c23.18-2.36 37.579-26.36 28.739-47.93z" fill="#918291"/><path d="m121.149 144.27c-.415-.579-.859-1.139-1.342-1.669-13.665-15.068-13.48-36.343-3.006-51.113l-8.412-16.842-40.471 19.073.19 2.71c.6 8.71-1.07 17.42-4.85 25.28l-1.05 2.19 19.52 21.43c2.16 2.37 3.66 5.27 4.34 8.41l1.23 5.65 9.19-.93c10.45-1.064 19.105-6.534 24.661-14.189z" fill="#7a6d79"/><g id="XMLID_269_"><g><path d="m202.697 129.579 50.64 51.99-70.31-36.67-22.22-23.29c-15.35-16.08-36.62-25.18-58.85-25.18h-33.85l-.19-2.71s69.47-72.49 134.78 35.86z" fill="#ee6161"/></g></g><path d="m254.597 149.139 155.47 139.54c-21.68 8.78-44.76 14.1-68.4 15.6l-14.83.94c-42.26 2.69-83.68-8.92-117.99-32.17 0 0-33.37-41.35-42.93-66.72-2.34-6.21-3.47-12.65-3.47-19.01 0-16.21 7.31-31.97 20.58-42.42 21.49-16.92 52.23-15.1 71.57 4.24z" fill="#97da7b"/></g></g></g><path d="m113.374 97.253c4.756-9.792 13.436-17.78 25.268-21.147l7.035-1.714c-43.245-16.685-77.76 19.327-77.76 19.327l.19 2.71h33.85c3.845 0 7.656.291 11.417.824z" fill="#e94444"/></g><path d="m499.903 363.675-48.417-42.351c.426-1.022.703-2.116.796-3.254.345-4.213-1.82-8.262-5.515-10.313l-7.433-4.13c-2.395-1.33-4.642-2.929-6.67-4.742l-111.711-100.268c-3.084-2.768-7.825-2.51-10.591.572-2.768 3.083-2.511 7.825.571 10.591l84.891 76.194c-17.651 6.003-35.975 9.639-54.63 10.824l-14.828.941c-39.689 2.524-79.692-8.314-112.708-30.504-17.786-18.03-31.806-39.856-40.728-63.549-7.17-19.044-1.247-40.3 14.739-52.892 18.488-14.563 44.982-12.995 61.625 3.647.096.095.193.188.294.278l37.522 33.679c3.083 2.767 7.825 2.51 10.591-.572 2.768-3.083 2.511-7.824-.571-10.591l-37.377-33.548c-13.678-13.585-32.338-19.507-50.362-17.445-.089-.178-.166-.36-.27-.533-23.158-38.419-49.717-59.548-78.938-62.8-33.84-3.766-59.531 17.894-66.081 24.054l-57.855 15.133c-3.72.973-6.288 4.337-6.246 8.181s2.684 7.151 6.424 8.042l51.798 12.344 17.964 19.717c1.271 1.396 2.156 3.108 2.558 4.952l15.188 69.755c8.716 40.029 29.345 75.766 59.657 103.345 1.437 1.308 3.243 1.953 5.045 1.953 2.038 0 4.069-.826 5.55-2.453 2.787-3.064 2.563-7.807-.501-10.595-27.993-25.471-47.045-58.474-55.095-95.441l-12.171-55.895.824-.084c13.428-1.365 25.111-8.787 32.055-20.362 6.337-10.564 7.746-22.98 4.057-34.564 8.19 3.846 15.695 9.169 22.024 15.801l16.913 17.723c-16.469 16.92-21.905 41.863-13.396 64.458 10.575 28.087 27.752 53.767 49.674 74.263 21.922 20.497 48.696 35.911 77.43 44.577l14.225 4.29c21.174 6.386 43.244 9.567 65.315 9.567 10.892 0 21.783-.785 32.567-2.333l14.806 16.353c-39.203 11.56-79.676 15.167-120.393 10.677l-26.788-2.955c-27.425-3.025-54.206-12.453-77.447-27.266-3.493-2.226-8.129-1.2-10.356 2.294-2.226 3.493-1.198 8.129 2.294 10.355 18.633 11.875 39.367 20.544 60.927 25.579l-21.559 34.354h-17.764c-4.143 0-7.5 3.358-7.5 7.5s3.357 7.5 7.5 7.5h21.912c2.581 0 4.98-1.327 6.353-3.514l4.633-7.384 5.478 7.733c1.406 1.985 3.688 3.165 6.12 3.165h4.341l-5.509 8.839h-17.749c-4.143 0-7.5 3.358-7.5 7.5s3.357 7.5 7.5 7.5h21.912c2.589 0 4.995-1.335 6.365-3.533l4.605-7.387 5.493 7.755c1.406 1.985 3.688 3.165 6.12 3.165h16.477c4.143 0 7.5-3.358 7.5-7.5s-3.357-7.5-7.5-7.5h-12.599l-6.887-9.724 25.672-41.187c10.662 1.055 21.303 1.585 31.914 1.585 32.417 0 64.517-4.916 95.808-14.7l1.784-.531 10.899 12.038c1.48 1.635 3.518 2.466 5.562 2.466 1.795 0 3.597-.641 5.032-1.94 3.07-2.78 3.306-7.523.525-10.593l-30.627-33.827c7.728-1.729 15.367-3.863 22.876-6.405l51.693 45.217c3.75 3.281 5.531 7.996 4.886 12.937s-3.578 9.041-8.046 11.248c-5.861 2.895-13.011 1.527-17.398-3.341l-1.904-2.104c-2.779-3.071-7.521-3.307-10.594-.528-3.07 2.779-3.307 7.522-.527 10.593l1.894 2.093c5.75 6.379 13.863 9.783 22.093 9.783 4.444 0 8.925-.993 13.082-3.047 8.904-4.399 14.988-12.905 16.275-22.753 1.284-9.85-2.412-19.633-9.887-26.172zm-439.339-260.282c-.331 4.026-1.226 7.992-2.666 11.773l-22.157-5.28zm57.726 9.98c3.307 8.07 2.63 16.987-1.856 24.465-4.485 7.478-12.033 12.272-20.709 13.155l-2.548.259c-1.042-4.077-3.062-7.858-5.902-10.975l-16.158-17.735c2.512-5.915 4.008-12.216 4.456-18.612h13.327v7.879c0 4.142 3.357 7.5 7.5 7.5s7.5-3.358 7.5-7.5v-7.829c3.707.099 7.384.48 11.006 1.131zm-16.33-24.443h-15.809c10.036-6.362 25.162-13.067 42.506-11.098 23.457 2.667 45.481 20.219 65.503 52.18-3.489 1.355-6.882 3.043-10.139 5.066l-17.792-18.644c-16.682-17.479-40.106-27.504-64.269-27.504zm148.239 319.798-6.841-9.658 13.609-21.686c2.368.351 4.74.674 7.119.936l13.922 1.536-17.996 28.872zm54.354-90.989-14.225-4.29c-3.557-1.073-7.078-2.266-10.564-3.559 11.621 2.122 23.44 3.206 35.292 3.206 4.085 0 8.175-.129 12.261-.388l14.828-.941c22.757-1.445 45.055-6.293 66.352-14.418l14.159 12.708c2.646 2.366 5.54 4.462 8.615 6.241-40.826 13.302-85.589 13.847-126.718 1.441z"/></g></svg>